# MagicaVoxel @ Ephtracy

# group
o 

# material
mtllib roadTile.mtl
usemtl palette

# normals
vn -1 0 0
vn 1 0 0
vn 0 0 1
vn 0 0 -1
vn 0 -1 0
vn 0 1 0

# texcoords
vt 0.146484 0.5
vt 0.279297 0.5
vt 0.591797 0.5
vt 0.958984 0.5
vt 0.994141 0.5

# verts
v -2 3.3 2
v -2 3.3 -2
v -2 4 2
v -2 4 -2
v -1.8 0 1.8
v -1.8 0 -1.8
v -1.8 3.3 1.8
v -1.8 3.3 -1.8
v 1.8 0 1.8
v 1.8 0 -1.8
v 1.8 3.3 1.8
v 1.8 3.3 -1.8
v 2 3.3 2
v 2 3.3 -2
v 2 4 2
v 2 4 -2
v -2 3.3 2
v -2 4 2
v 2 3.3 2
v 2 4 2
v -1.8 0 1.8
v -1.8 3.3 1.8
v 1.8 0 1.8
v 1.8 3.3 1.8
v -1.8 0 -1.8
v -1.8 3.3 -1.8
v 1.8 0 -1.8
v 1.8 3.3 -1.8
v -2 3.3 -2
v -2 4 -2
v 2 3.3 -2
v 2 4 -2
v -1.8 0 1.8
v 1.8 0 1.8
v -1.8 0 -1.8
v 1.8 0 -1.8
v -2 3.3 2
v 2 3.3 2
v -1.8 3.3 1.8
v 1.8 3.3 1.8
v -1.8 3.3 -1.8
v 1.8 3.3 -1.8
v -2 3.3 -2
v 2 3.3 -2
v -2 4 2
v 2 4 2
v -1.8 4 1.8
v 1.8 4 1.8
v -1.6 4 1.6
v 1.6 4 1.6
v -1.4 4 1.4
v 1.4 4 1.4
v -1.2 4 1.2
v 1.2 4 1.2
v -1 4 1
v 1 4 1
v -1 4 -1
v 1 4 -1
v -1.2 4 -1.2
v 1.2 4 -1.2
v -1.4 4 -1.4
v 1.4 4 -1.4
v -1.6 4 -1.6
v 1.6 4 -1.6
v -1.8 4 -1.8
v 1.8 4 -1.8
v -2 4 -2
v 2 4 -2

# faces
f 3/3/1 2/3/1 1/3/1
f 4/3/1 2/3/1 3/3/1
f 7/2/1 6/2/1 5/2/1
f 8/2/1 6/2/1 7/2/1
f 9/2/2 10/2/2 11/2/2
f 11/2/2 10/2/2 12/2/2
f 13/3/2 14/3/2 15/3/2
f 15/3/2 14/3/2 16/3/2
f 19/3/3 18/3/3 17/3/3
f 20/3/3 18/3/3 19/3/3
f 23/2/3 22/2/3 21/2/3
f 24/2/3 22/2/3 23/2/3
f 25/2/4 26/2/4 27/2/4
f 27/2/4 26/2/4 28/2/4
f 29/3/4 30/3/4 31/3/4
f 31/3/4 30/3/4 32/3/4
f 35/2/5 34/2/5 33/2/5
f 36/2/5 34/2/5 35/2/5
f 39/3/5 38/3/5 37/3/5
f 40/3/5 38/3/5 39/3/5
f 41/3/5 39/3/5 37/3/5
f 42/3/5 38/3/5 40/3/5
f 43/3/5 41/3/5 37/3/5
f 43/3/5 42/3/5 41/3/5
f 44/3/5 38/3/5 42/3/5
f 44/3/5 42/3/5 43/3/5
f 45/3/6 46/3/6 47/3/6
f 47/3/6 46/3/6 48/3/6
f 47/4/6 48/4/6 49/4/6
f 49/4/6 48/4/6 50/4/6
f 49/5/6 50/5/6 51/5/6
f 51/5/6 50/5/6 52/5/6
f 51/4/6 52/4/6 53/4/6
f 53/4/6 52/4/6 54/4/6
f 53/5/6 54/5/6 55/5/6
f 55/5/6 54/5/6 56/5/6
f 53/5/6 55/5/6 57/5/6
f 55/1/6 56/1/6 57/1/6
f 56/5/6 54/5/6 58/5/6
f 57/1/6 56/1/6 58/1/6
f 51/4/6 53/4/6 59/4/6
f 53/5/6 57/5/6 59/5/6
f 57/5/6 58/5/6 59/5/6
f 58/5/6 54/5/6 60/5/6
f 59/5/6 58/5/6 60/5/6
f 54/4/6 52/4/6 60/4/6
f 49/5/6 51/5/6 61/5/6
f 51/4/6 59/4/6 61/4/6
f 59/4/6 60/4/6 61/4/6
f 60/4/6 52/4/6 62/4/6
f 61/4/6 60/4/6 62/4/6
f 52/5/6 50/5/6 62/5/6
f 47/4/6 49/4/6 63/4/6
f 49/5/6 61/5/6 63/5/6
f 61/5/6 62/5/6 63/5/6
f 62/5/6 50/5/6 64/5/6
f 63/5/6 62/5/6 64/5/6
f 50/4/6 48/4/6 64/4/6
f 45/3/6 47/3/6 65/3/6
f 47/4/6 63/4/6 65/4/6
f 63/4/6 64/4/6 65/4/6
f 64/4/6 48/4/6 66/4/6
f 65/4/6 64/4/6 66/4/6
f 48/3/6 46/3/6 66/3/6
f 45/3/6 65/3/6 67/3/6
f 65/3/6 66/3/6 67/3/6
f 66/3/6 46/3/6 68/3/6
f 67/3/6 66/3/6 68/3/6
