# MagicaVoxel @ Ephtracy

# group
o 

# material
mtllib CyberBike3.mtl
usemtl palette

# normals
vn -1 0 0
vn 1 0 0
vn 0 0 1
vn 0 0 -1
vn 0 -1 0
vn 0 1 0

# texcoords
vt 0.0605469 0.5
vt 0.123047 0.5
vt 0.326172 0.5
vt 0.689453 0.5
vt 0.748047 0.5
vt 0.935547 0.5
vt 0.939453 0.5

# verts
v -0.3 0.9 0.4
v -0.3 0.9 0.3
v -0.3 1 0.4
v -0.3 1 0.3
v -0.2 0.3 0.7
v -0.2 0.3 0.4
v -0.2 0.3 -0.2
v -0.2 0.3 -0.5
v -0.2 0.4 0.7
v -0.2 0.4 0.4
v -0.2 0.4 -0.2
v -0.2 0.4 -0.5
v -0.2 0.5 0.7
v -0.2 0.5 0.4
v -0.2 0.5 -0.2
v -0.2 0.5 -0.5
v -0.2 0.6 0.7
v -0.2 0.6 0.4
v -0.2 0.6 -0.2
v -0.2 0.6 -0.5
v -0.2 0.7 0.8
v -0.2 0.7 0.7
v -0.2 0.7 0.5
v -0.2 0.7 0.4
v -0.2 0.7 0.3
v -0.2 0.7 -0.1
v -0.2 0.7 -0.2
v -0.2 0.7 -0.3
v -0.2 0.7 -0.5
v -0.2 0.8 0.8
v -0.2 0.8 0.7
v -0.2 0.8 0.5
v -0.2 0.8 0.3
v -0.2 0.8 0.2
v -0.2 0.8 -5.96046e-08
v -0.2 0.8 -0.1
v -0.2 0.8 -0.2
v -0.2 0.8 -0.3
v -0.2 0.9 0.7
v -0.2 0.9 0.6
v -0.2 0.9 0.5
v -0.2 0.9 0.4
v -0.2 0.9 0.3
v -0.2 0.9 0.2
v -0.2 0.9 -5.96046e-08
v -0.2 0.9 -0.1
v -0.2 0.9 -0.2
v -0.2 0.9 -0.3
v -0.2 0.9 -0.4
v -0.2 1 0.6
v -0.2 1 0.5
v -0.2 1 0.4
v -0.2 1 -0.2
v -0.2 1 -0.4
v -0.2 1.1 0.5
v -0.2 1.1 0.4
v -0.1 0.7 -0.3
v -0.1 0.7 -0.4
v -0.1 0.8 0.2
v -0.1 0.8 -5.96046e-08
v -0.1 0.8 -0.3
v -0.1 0.8 -0.4
v -0.1 0.9 0.7
v -0.1 0.9 0.6
v -0.1 0.9 0.2
v -0.1 0.9 -5.96046e-08
v -0.1 0.9 -0.1
v -0.1 0.9 -0.2
v -0.1 0.9 -0.3
v -0.1 0.9 -0.4
v -0.1 0.9 -0.5
v -0.1 1 0.7
v -0.1 1 0.6
v -0.1 1 0.5
v -0.1 1 -0.1
v -0.1 1 -0.2
v -0.1 1 -0.4
v -0.1 1 -0.5
v -0.1 1.1 0.6
v -0.1 1.1 0.5
v 2.98023e-08 0.3 0.6
v 2.98023e-08 0.3 0.5
v 2.98023e-08 0.3 -0.3
v 2.98023e-08 0.3 -0.4
v 2.98023e-08 0.4 0.6
v 2.98023e-08 0.4 0.5
v 2.98023e-08 0.4 -0.3
v 2.98023e-08 0.4 -0.4
v -0.1 0.3 0.6
v -0.1 0.3 0.5
v -0.1 0.3 -0.3
v -0.1 0.3 -0.4
v -0.1 0.4 0.6
v -0.1 0.4 0.5
v -0.1 0.4 -0.3
v -0.1 0.4 -0.4
v 2.98023e-08 0.7 -0.3
v 2.98023e-08 0.7 -0.4
v 2.98023e-08 0.8 0.2
v 2.98023e-08 0.8 -5.96046e-08
v 2.98023e-08 0.8 -0.3
v 2.98023e-08 0.8 -0.4
v 2.98023e-08 0.9 0.7
v 2.98023e-08 0.9 0.6
v 2.98023e-08 0.9 0.2
v 2.98023e-08 0.9 -5.96046e-08
v 2.98023e-08 0.9 -0.1
v 2.98023e-08 0.9 -0.2
v 2.98023e-08 0.9 -0.3
v 2.98023e-08 0.9 -0.4
v 2.98023e-08 0.9 -0.5
v 2.98023e-08 1 0.7
v 2.98023e-08 1 0.6
v 2.98023e-08 1 0.5
v 2.98023e-08 1 -0.1
v 2.98023e-08 1 -0.2
v 2.98023e-08 1 -0.4
v 2.98023e-08 1 -0.5
v 2.98023e-08 1.1 0.6
v 2.98023e-08 1.1 0.5
v 0.1 0.3 0.7
v 0.1 0.3 0.4
v 0.1 0.3 -0.2
v 0.1 0.3 -0.5
v 0.1 0.4 0.7
v 0.1 0.4 0.4
v 0.1 0.4 -0.2
v 0.1 0.4 -0.5
v 0.1 0.5 0.7
v 0.1 0.5 0.4
v 0.1 0.5 -0.2
v 0.1 0.5 -0.5
v 0.1 0.6 0.7
v 0.1 0.6 0.4
v 0.1 0.6 -0.2
v 0.1 0.6 -0.5
v 0.1 0.7 0.8
v 0.1 0.7 0.7
v 0.1 0.7 0.5
v 0.1 0.7 0.4
v 0.1 0.7 0.3
v 0.1 0.7 -0.1
v 0.1 0.7 -0.2
v 0.1 0.7 -0.3
v 0.1 0.7 -0.5
v 0.1 0.8 0.8
v 0.1 0.8 0.7
v 0.1 0.8 0.5
v 0.1 0.8 0.3
v 0.1 0.8 0.2
v 0.1 0.8 -5.96046e-08
v 0.1 0.8 -0.1
v 0.1 0.8 -0.2
v 0.1 0.8 -0.3
v 0.1 0.9 0.7
v 0.1 0.9 0.6
v 0.1 0.9 0.5
v 0.1 0.9 0.4
v 0.1 0.9 0.3
v 0.1 0.9 0.2
v 0.1 0.9 -5.96046e-08
v 0.1 0.9 -0.1
v 0.1 0.9 -0.2
v 0.1 0.9 -0.3
v 0.1 0.9 -0.4
v 0.1 1 0.6
v 0.1 1 0.5
v 0.1 1 0.4
v 0.1 1 -0.2
v 0.1 1 -0.4
v 0.1 1.1 0.5
v 0.1 1.1 0.4
v 0.2 0.9 0.4
v 0.2 0.9 0.3
v 0.2 1 0.4
v 0.2 1 0.3
v -0.2 0.7 0.8
v -0.2 0.8 0.8
v 0.1 0.7 0.8
v 0.1 0.8 0.8
v -0.2 0.3 0.7
v -0.2 0.4 0.7
v -0.2 0.5 0.7
v -0.2 0.6 0.7
v -0.2 0.7 0.7
v -0.2 0.8 0.7
v -0.2 0.9 0.7
v -0.1 0.9 0.7
v -0.1 1 0.7
v 2.98023e-08 0.9 0.7
v 2.98023e-08 1 0.7
v 0.1 0.3 0.7
v 0.1 0.4 0.7
v 0.1 0.5 0.7
v 0.1 0.6 0.7
v 0.1 0.7 0.7
v 0.1 0.8 0.7
v 0.1 0.9 0.7
v -0.2 0.9 0.6
v -0.2 1 0.6
v -0.1 0.9 0.6
v -0.1 1 0.6
v -0.1 1.1 0.6
v 2.98023e-08 0.9 0.6
v 2.98023e-08 1 0.6
v 2.98023e-08 1.1 0.6
v 0.1 0.9 0.6
v 0.1 1 0.6
v -0.2 1 0.5
v -0.2 1.1 0.5
v -0.1 0.3 0.5
v -0.1 0.4 0.5
v -0.1 1 0.5
v -0.1 1.1 0.5
v 2.98023e-08 0.3 0.5
v 2.98023e-08 0.4 0.5
v 2.98023e-08 1 0.5
v 2.98023e-08 1.1 0.5
v 0.1 1 0.5
v 0.1 1.1 0.5
v -0.3 0.9 0.4
v -0.3 1 0.4
v -0.2 0.9 0.4
v -0.2 1 0.4
v 0.1 0.9 0.4
v 0.1 1 0.4
v 0.2 0.9 0.4
v 0.2 1 0.4
v -0.2 0.8 -5.96046e-08
v -0.2 0.9 -5.96046e-08
v -0.1 0.8 -5.96046e-08
v -0.1 0.9 -5.96046e-08
v 2.98023e-08 0.8 -5.96046e-08
v 2.98023e-08 0.9 -5.96046e-08
v 0.1 0.8 -5.96046e-08
v 0.1 0.9 -5.96046e-08
v -0.1 0.9 -0.1
v -0.1 1 -0.1
v 2.98023e-08 0.9 -0.1
v 2.98023e-08 1 -0.1
v -0.2 0.3 -0.2
v -0.2 0.4 -0.2
v -0.2 0.5 -0.2
v -0.2 0.6 -0.2
v -0.2 0.7 -0.2
v -0.2 0.9 -0.2
v -0.2 1 -0.2
v -0.1 0.9 -0.2
v -0.1 1 -0.2
v 2.98023e-08 0.9 -0.2
v 2.98023e-08 1 -0.2
v 0.1 0.3 -0.2
v 0.1 0.4 -0.2
v 0.1 0.5 -0.2
v 0.1 0.6 -0.2
v 0.1 0.7 -0.2
v 0.1 0.9 -0.2
v 0.1 1 -0.2
v -0.1 0.3 -0.4
v -0.1 0.4 -0.4
v 2.98023e-08 0.3 -0.4
v 2.98023e-08 0.4 -0.4
v -0.1 0.3 0.6
v -0.1 0.4 0.6
v 2.98023e-08 0.3 0.6
v 2.98023e-08 0.4 0.6
v -0.2 0.3 0.4
v -0.2 0.4 0.4
v -0.2 0.5 0.4
v -0.2 0.6 0.4
v -0.2 0.7 0.4
v -0.2 1 0.4
v -0.2 1.1 0.4
v -0.1 1 0.4
v 2.98023e-08 1 0.4
v 0.1 0.3 0.4
v 0.1 0.4 0.4
v 0.1 0.5 0.4
v 0.1 0.6 0.4
v 0.1 0.7 0.4
v 0.1 1 0.4
v 0.1 1.1 0.4
v -0.3 0.9 0.3
v -0.3 1 0.3
v -0.2 0.9 0.3
v -0.1 0.9 0.3
v -0.1 1 0.3
v 2.98023e-08 0.9 0.3
v 2.98023e-08 1 0.3
v 0.1 0.9 0.3
v 0.2 0.9 0.3
v 0.2 1 0.3
v -0.2 0.8 0.2
v -0.2 0.9 0.2
v -0.1 0.8 0.2
v -0.1 0.9 0.2
v 2.98023e-08 0.8 0.2
v 2.98023e-08 0.9 0.2
v 0.1 0.8 0.2
v 0.1 0.9 0.2
v -0.2 0.7 -0.3
v -0.2 0.8 -0.3
v -0.2 0.9 -0.3
v -0.1 0.3 -0.3
v -0.1 0.4 -0.3
v -0.1 0.7 -0.3
v -0.1 0.8 -0.3
v -0.1 0.9 -0.3
v 2.98023e-08 0.3 -0.3
v 2.98023e-08 0.4 -0.3
v 2.98023e-08 0.7 -0.3
v 2.98023e-08 0.8 -0.3
v 2.98023e-08 0.9 -0.3
v 0.1 0.7 -0.3
v 0.1 0.8 -0.3
v 0.1 0.9 -0.3
v -0.2 0.9 -0.4
v -0.2 1 -0.4
v -0.1 0.7 -0.4
v -0.1 0.8 -0.4
v -0.1 0.9 -0.4
v -0.1 1 -0.4
v 2.98023e-08 0.7 -0.4
v 2.98023e-08 0.8 -0.4
v 2.98023e-08 0.9 -0.4
v 2.98023e-08 1 -0.4
v 0.1 0.9 -0.4
v 0.1 1 -0.4
v -0.2 0.3 -0.5
v -0.2 0.4 -0.5
v -0.2 0.5 -0.5
v -0.2 0.6 -0.5
v -0.2 0.7 -0.5
v -0.1 0.9 -0.5
v -0.1 1 -0.5
v 2.98023e-08 0.9 -0.5
v 2.98023e-08 1 -0.5
v 0.1 0.3 -0.5
v 0.1 0.4 -0.5
v 0.1 0.5 -0.5
v 0.1 0.6 -0.5
v 0.1 0.7 -0.5
v -0.2 0.3 0.7
v 0.1 0.3 0.7
v -0.1 0.3 0.6
v 2.98023e-08 0.3 0.6
v -0.1 0.3 0.5
v 2.98023e-08 0.3 0.5
v -0.2 0.3 0.4
v 0.1 0.3 0.4
v -0.2 0.3 -0.2
v 0.1 0.3 -0.2
v -0.1 0.3 -0.3
v 2.98023e-08 0.3 -0.3
v -0.1 0.3 -0.4
v 2.98023e-08 0.3 -0.4
v -0.2 0.3 -0.5
v 0.1 0.3 -0.5
v -0.2 0.5 0.7
v 0.1 0.5 0.7
v -0.1 0.5 0.6
v 2.98023e-08 0.5 0.6
v -0.1 0.5 0.5
v 2.98023e-08 0.5 0.5
v -0.2 0.5 0.4
v 0.1 0.5 0.4
v -0.2 0.5 -0.2
v 0.1 0.5 -0.2
v -0.1 0.5 -0.3
v 2.98023e-08 0.5 -0.3
v -0.1 0.5 -0.4
v 2.98023e-08 0.5 -0.4
v -0.2 0.5 -0.5
v 0.1 0.5 -0.5
v -0.2 0.7 0.8
v 0.1 0.7 0.8
v -0.2 0.7 0.7
v 0.1 0.7 0.7
v -0.2 0.7 0.4
v 0.1 0.7 0.4
v -0.2 0.7 0.3
v -0.1 0.7 0.3
v 2.98023e-08 0.7 0.3
v 0.1 0.7 0.3
v -0.2 0.7 -0.1
v -0.1 0.7 -0.1
v 2.98023e-08 0.7 -0.1
v 0.1 0.7 -0.1
v -0.2 0.7 -0.2
v 0.1 0.7 -0.2
v -0.3 0.9 0.4
v -0.2 0.9 0.4
v 0.1 0.9 0.4
v 0.2 0.9 0.4
v -0.3 0.9 0.3
v -0.2 0.9 0.3
v 0.1 0.9 0.3
v 0.2 0.9 0.3
v -0.2 0.9 -0.3
v -0.1 0.9 -0.3
v 2.98023e-08 0.9 -0.3
v 0.1 0.9 -0.3
v -0.2 0.9 -0.4
v -0.1 0.9 -0.4
v 2.98023e-08 0.9 -0.4
v 0.1 0.9 -0.4
v -0.1 0.9 -0.5
v 2.98023e-08 0.9 -0.5
v -0.2 0.4 0.7
v 0.1 0.4 0.7
v -0.1 0.4 0.6
v 2.98023e-08 0.4 0.6
v -0.1 0.4 0.5
v 2.98023e-08 0.4 0.5
v -0.2 0.4 0.4
v 0.1 0.4 0.4
v -0.2 0.4 -0.2
v 0.1 0.4 -0.2
v -0.1 0.4 -0.3
v 2.98023e-08 0.4 -0.3
v -0.1 0.4 -0.4
v 2.98023e-08 0.4 -0.4
v -0.2 0.4 -0.5
v 0.1 0.4 -0.5
v -0.2 0.7 -0.3
v -0.1 0.7 -0.3
v 2.98023e-08 0.7 -0.3
v 0.1 0.7 -0.3
v -0.1 0.7 -0.4
v 2.98023e-08 0.7 -0.4
v -0.2 0.7 -0.5
v 0.1 0.7 -0.5
v -0.2 0.8 0.8
v 0.1 0.8 0.8
v -0.2 0.8 0.7
v 0.1 0.8 0.7
v -0.2 0.8 0.2
v -0.1 0.8 0.2
v 2.98023e-08 0.8 0.2
v 0.1 0.8 0.2
v -0.2 0.8 -5.96046e-08
v -0.1 0.8 -5.96046e-08
v 2.98023e-08 0.8 -5.96046e-08
v 0.1 0.8 -5.96046e-08
v -0.2 0.9 0.7
v -0.1 0.9 0.7
v 2.98023e-08 0.9 0.7
v 0.1 0.9 0.7
v -0.2 0.9 0.6
v -0.1 0.9 0.6
v 2.98023e-08 0.9 0.6
v 0.1 0.9 0.6
v -0.2 0.9 0.3
v -0.1 0.9 0.3
v 2.98023e-08 0.9 0.3
v 0.1 0.9 0.3
v -0.2 0.9 0.2
v -0.1 0.9 0.2
v 2.98023e-08 0.9 0.2
v 0.1 0.9 0.2
v -0.2 0.9 -5.96046e-08
v -0.1 0.9 -5.96046e-08
v 2.98023e-08 0.9 -5.96046e-08
v 0.1 0.9 -5.96046e-08
v -0.2 0.9 -0.1
v -0.1 0.9 -0.1
v 2.98023e-08 0.9 -0.1
v 0.1 0.9 -0.1
v -0.2 0.9 -0.2
v -0.1 0.9 -0.2
v 2.98023e-08 0.9 -0.2
v 0.1 0.9 -0.2
v -0.1 1 0.7
v 2.98023e-08 1 0.7
v -0.2 1 0.6
v -0.1 1 0.6
v 2.98023e-08 1 0.6
v 0.1 1 0.6
v -0.2 1 0.5
v -0.1 1 0.5
v 2.98023e-08 1 0.5
v 0.1 1 0.5
v -0.3 1 0.4
v -0.2 1 0.4
v -0.1 1 0.4
v 2.98023e-08 1 0.4
v 0.1 1 0.4
v 0.2 1 0.4
v -0.3 1 0.3
v -0.1 1 0.3
v 2.98023e-08 1 0.3
v 0.2 1 0.3
v -0.1 1 -0.1
v 2.98023e-08 1 -0.1
v -0.2 1 -0.2
v -0.1 1 -0.2
v 2.98023e-08 1 -0.2
v 0.1 1 -0.2
v -0.2 1 -0.4
v -0.1 1 -0.4
v 2.98023e-08 1 -0.4
v 0.1 1 -0.4
v -0.1 1 -0.5
v 2.98023e-08 1 -0.5
v -0.1 1.1 0.6
v 2.98023e-08 1.1 0.6
v -0.2 1.1 0.5
v -0.1 1.1 0.5
v 2.98023e-08 1.1 0.5
v 0.1 1.1 0.5
v -0.2 1.1 0.4
v 0.1 1.1 0.4

# faces
f 3/7/1 2/7/1 1/7/1
f 4/7/1 2/7/1 3/7/1
f 9/5/1 6/5/1 5/5/1
f 10/5/1 6/5/1 9/5/1
f 11/5/1 8/5/1 7/5/1
f 12/5/1 8/5/1 11/5/1
f 17/5/1 14/5/1 13/5/1
f 18/5/1 14/5/1 17/5/1
f 19/5/1 16/5/1 15/5/1
f 20/5/1 16/5/1 19/5/1
f 22/6/1 18/6/1 17/6/1
f 23/6/1 18/6/1 22/6/1
f 24/6/1 18/6/1 23/6/1
f 27/6/1 20/6/1 19/6/1
f 28/6/1 20/6/1 27/6/1
f 29/6/1 20/6/1 28/6/1
f 30/2/1 22/2/1 21/2/1
f 30/2/1 23/2/1 22/2/1
f 31/2/1 23/2/1 30/2/1
f 32/6/1 24/6/1 23/6/1
f 32/2/1 23/2/1 31/2/1
f 32/6/1 25/6/1 24/6/1
f 33/3/1 26/3/1 25/3/1
f 33/6/1 25/6/1 32/6/1
f 34/3/1 26/3/1 33/3/1
f 35/3/1 26/3/1 34/3/1
f 36/6/1 28/6/1 27/6/1
f 36/3/1 26/3/1 35/3/1
f 36/6/1 27/6/1 26/6/1
f 37/6/1 28/6/1 36/6/1
f 38/6/1 28/6/1 37/6/1
f 39/1/1 32/1/1 31/1/1
f 39/1/1 33/1/1 32/1/1
f 40/1/1 33/1/1 39/1/1
f 41/1/1 33/1/1 40/1/1
f 42/1/1 33/1/1 41/1/1
f 43/3/1 34/3/1 33/3/1
f 43/1/1 33/1/1 42/1/1
f 44/3/1 34/3/1 43/3/1
f 45/3/1 36/3/1 35/3/1
f 46/1/1 37/1/1 36/1/1
f 46/3/1 36/3/1 45/3/1
f 47/2/1 38/2/1 37/2/1
f 47/1/1 37/1/1 46/1/1
f 48/2/1 38/2/1 47/2/1
f 50/5/1 41/5/1 40/5/1
f 51/1/1 42/1/1 41/1/1
f 51/5/1 41/5/1 50/5/1
f 52/1/1 42/1/1 51/1/1
f 53/1/1 48/1/1 47/1/1
f 53/1/1 49/1/1 48/1/1
f 54/1/1 49/1/1 53/1/1
f 55/4/1 52/4/1 51/4/1
f 56/4/1 52/4/1 55/4/1
f 61/6/1 58/6/1 57/6/1
f 62/6/1 58/6/1 61/6/1
f 65/3/1 60/3/1 59/3/1
f 66/3/1 60/3/1 65/3/1
f 69/2/1 62/2/1 61/2/1
f 70/2/1 62/2/1 69/2/1
f 72/4/1 64/4/1 63/4/1
f 73/4/1 64/4/1 72/4/1
f 75/1/1 68/1/1 67/1/1
f 76/1/1 68/1/1 75/1/1
f 77/1/1 71/1/1 70/1/1
f 78/1/1 71/1/1 77/1/1
f 79/5/1 74/5/1 73/5/1
f 80/5/1 74/5/1 79/5/1
f 85/5/1 82/5/1 81/5/1
f 86/5/1 82/5/1 85/5/1
f 87/5/1 84/5/1 83/5/1
f 88/5/1 84/5/1 87/5/1
f 89/5/2 90/5/2 93/5/2
f 93/5/2 90/5/2 94/5/2
f 91/5/2 92/5/2 95/5/2
f 95/5/2 92/5/2 96/5/2
f 97/6/2 98/6/2 101/6/2
f 101/6/2 98/6/2 102/6/2
f 99/3/2 100/3/2 105/3/2
f 105/3/2 100/3/2 106/3/2
f 101/2/2 102/2/2 109/2/2
f 109/2/2 102/2/2 110/2/2
f 103/4/2 104/4/2 112/4/2
f 112/4/2 104/4/2 113/4/2
f 107/1/2 108/1/2 115/1/2
f 115/1/2 108/1/2 116/1/2
f 110/1/2 111/1/2 117/1/2
f 117/1/2 111/1/2 118/1/2
f 113/5/2 114/5/2 119/5/2
f 119/5/2 114/5/2 120/5/2
f 121/5/2 122/5/2 125/5/2
f 125/5/2 122/5/2 126/5/2
f 123/5/2 124/5/2 127/5/2
f 127/5/2 124/5/2 128/5/2
f 129/5/2 130/5/2 133/5/2
f 133/5/2 130/5/2 134/5/2
f 131/5/2 132/5/2 135/5/2
f 135/5/2 132/5/2 136/5/2
f 133/6/2 134/6/2 138/6/2
f 138/6/2 134/6/2 139/6/2
f 139/6/2 134/6/2 140/6/2
f 135/6/2 136/6/2 143/6/2
f 143/6/2 136/6/2 144/6/2
f 144/6/2 136/6/2 145/6/2
f 137/2/2 138/2/2 146/2/2
f 138/2/2 139/2/2 146/2/2
f 146/2/2 139/2/2 147/2/2
f 139/6/2 140/6/2 148/6/2
f 147/2/2 139/2/2 148/2/2
f 140/6/2 141/6/2 148/6/2
f 141/3/2 142/3/2 149/3/2
f 148/6/2 141/6/2 149/6/2
f 149/3/2 142/3/2 150/3/2
f 150/3/2 142/3/2 151/3/2
f 143/6/2 144/6/2 152/6/2
f 151/3/2 142/3/2 152/3/2
f 142/6/2 143/6/2 152/6/2
f 152/6/2 144/6/2 153/6/2
f 153/6/2 144/6/2 154/6/2
f 147/1/2 148/1/2 155/1/2
f 148/1/2 149/1/2 155/1/2
f 155/1/2 149/1/2 156/1/2
f 156/1/2 149/1/2 157/1/2
f 157/1/2 149/1/2 158/1/2
f 149/3/2 150/3/2 159/3/2
f 158/1/2 149/1/2 159/1/2
f 159/3/2 150/3/2 160/3/2
f 151/3/2 152/3/2 161/3/2
f 152/1/2 153/1/2 162/1/2
f 161/3/2 152/3/2 162/3/2
f 153/2/2 154/2/2 163/2/2
f 162/1/2 153/1/2 163/1/2
f 163/2/2 154/2/2 164/2/2
f 156/5/2 157/5/2 166/5/2
f 157/1/2 158/1/2 167/1/2
f 166/5/2 157/5/2 167/5/2
f 167/1/2 158/1/2 168/1/2
f 163/1/2 164/1/2 169/1/2
f 164/1/2 165/1/2 169/1/2
f 169/1/2 165/1/2 170/1/2
f 167/4/2 168/4/2 171/4/2
f 171/4/2 168/4/2 172/4/2
f 173/7/2 174/7/2 175/7/2
f 175/7/2 174/7/2 176/7/2
f 179/2/3 178/2/3 177/2/3
f 180/2/3 178/2/3 179/2/3
f 188/1/3 187/1/3 186/1/3
f 190/1/3 188/1/3 186/1/3
f 190/4/3 189/4/3 188/4/3
f 191/4/3 189/4/3 190/4/3
f 192/5/3 182/5/3 181/5/3
f 193/5/3 182/5/3 192/5/3
f 194/5/3 184/5/3 183/5/3
f 195/6/3 185/6/3 184/6/3
f 195/5/3 184/5/3 194/5/3
f 196/6/3 185/6/3 195/6/3
f 197/1/3 190/1/3 186/1/3
f 198/1/3 190/1/3 197/1/3
f 201/5/3 200/5/3 199/5/3
f 202/5/3 200/5/3 201/5/3
f 205/5/3 203/5/3 202/5/3
f 206/5/3 203/5/3 205/5/3
f 207/5/3 205/5/3 204/5/3
f 208/5/3 205/5/3 207/5/3
f 213/4/3 210/4/3 209/4/3
f 214/4/3 210/4/3 213/4/3
f 215/5/3 212/5/3 211/5/3
f 216/5/3 212/5/3 215/5/3
f 219/4/3 218/4/3 217/4/3
f 220/4/3 218/4/3 219/4/3
f 223/7/3 222/7/3 221/7/3
f 224/7/3 222/7/3 223/7/3
f 227/7/3 226/7/3 225/7/3
f 228/7/3 226/7/3 227/7/3
f 231/3/3 230/3/3 229/3/3
f 232/3/3 230/3/3 231/3/3
f 235/3/3 234/3/3 233/3/3
f 236/3/3 234/3/3 235/3/3
f 239/1/3 238/1/3 237/1/3
f 240/1/3 238/1/3 239/1/3
f 248/1/3 247/1/3 246/1/3
f 249/1/3 247/1/3 248/1/3
f 252/5/3 242/5/3 241/5/3
f 253/5/3 242/5/3 252/5/3
f 254/5/3 244/5/3 243/5/3
f 255/6/3 245/6/3 244/6/3
f 255/5/3 244/5/3 254/5/3
f 256/6/3 245/6/3 255/6/3
f 257/1/3 251/1/3 250/1/3
f 258/1/3 251/1/3 257/1/3
f 261/5/3 260/5/3 259/5/3
f 262/5/3 260/5/3 261/5/3
f 263/5/4 264/5/4 265/5/4
f 265/5/4 264/5/4 266/5/4
f 272/4/4 273/4/4 274/4/4
f 274/4/4 273/4/4 275/4/4
f 267/5/4 268/5/4 276/5/4
f 276/5/4 268/5/4 277/5/4
f 269/5/4 270/5/4 278/5/4
f 270/6/4 271/6/4 279/6/4
f 278/5/4 270/5/4 279/5/4
f 279/6/4 271/6/4 280/6/4
f 275/4/4 273/4/4 281/4/4
f 281/4/4 273/4/4 282/4/4
f 283/7/4 284/7/4 285/7/4
f 285/7/4 284/7/4 286/7/4
f 286/7/4 284/7/4 287/7/4
f 286/6/4 287/6/4 288/6/4
f 288/6/4 287/6/4 289/6/4
f 288/7/4 289/7/4 290/7/4
f 290/7/4 289/7/4 291/7/4
f 291/7/4 289/7/4 292/7/4
f 293/3/4 294/3/4 295/3/4
f 295/3/4 294/3/4 296/3/4
f 297/3/4 298/3/4 299/3/4
f 299/3/4 298/3/4 300/3/4
f 301/6/4 302/6/4 306/6/4
f 302/2/4 303/2/4 307/2/4
f 306/6/4 302/6/4 307/6/4
f 307/2/4 303/2/4 308/2/4
f 304/5/4 305/5/4 309/5/4
f 309/5/4 305/5/4 310/5/4
f 311/6/4 312/6/4 314/6/4
f 312/2/4 313/2/4 315/2/4
f 314/6/4 312/6/4 315/6/4
f 315/2/4 313/2/4 316/2/4
f 317/1/4 318/1/4 321/1/4
f 321/1/4 318/1/4 322/1/4
f 319/6/4 320/6/4 323/6/4
f 320/2/4 321/2/4 324/2/4
f 323/6/4 320/6/4 324/6/4
f 324/2/4 321/2/4 325/2/4
f 325/1/4 326/1/4 327/1/4
f 327/1/4 326/1/4 328/1/4
f 334/1/4 335/1/4 336/1/4
f 336/1/4 335/1/4 337/1/4
f 329/5/4 330/5/4 338/5/4
f 338/5/4 330/5/4 339/5/4
f 331/5/4 332/5/4 340/5/4
f 332/6/4 333/6/4 341/6/4
f 340/5/4 332/5/4 341/5/4
f 341/6/4 333/6/4 342/6/4
f 345/5/5 344/5/5 343/5/5
f 346/5/5 344/5/5 345/5/5
f 347/5/5 345/5/5 343/5/5
f 348/5/5 344/5/5 346/5/5
f 349/5/5 347/5/5 343/5/5
f 349/5/5 348/5/5 347/5/5
f 350/5/5 344/5/5 348/5/5
f 350/5/5 348/5/5 349/5/5
f 353/5/5 352/5/5 351/5/5
f 354/5/5 352/5/5 353/5/5
f 355/5/5 353/5/5 351/5/5
f 356/5/5 352/5/5 354/5/5
f 357/5/5 355/5/5 351/5/5
f 357/5/5 356/5/5 355/5/5
f 358/5/5 352/5/5 356/5/5
f 358/5/5 356/5/5 357/5/5
f 361/5/5 360/5/5 359/5/5
f 362/5/5 360/5/5 361/5/5
f 363/5/5 361/5/5 359/5/5
f 363/7/5 362/7/5 361/7/5
f 364/5/5 360/5/5 362/5/5
f 364/7/5 362/7/5 363/7/5
f 365/5/5 363/5/5 359/5/5
f 365/5/5 364/5/5 363/5/5
f 366/5/5 360/5/5 364/5/5
f 366/5/5 364/5/5 365/5/5
f 369/5/5 368/5/5 367/5/5
f 370/5/5 368/5/5 369/5/5
f 371/5/5 369/5/5 367/5/5
f 371/7/5 370/7/5 369/7/5
f 372/5/5 368/5/5 370/5/5
f 372/7/5 370/7/5 371/7/5
f 373/5/5 371/5/5 367/5/5
f 373/5/5 372/5/5 371/5/5
f 374/5/5 368/5/5 372/5/5
f 374/5/5 372/5/5 373/5/5
f 377/2/5 376/2/5 375/2/5
f 378/2/5 376/2/5 377/2/5
f 381/6/5 380/6/5 379/6/5
f 382/6/5 380/6/5 381/6/5
f 383/6/5 380/6/5 382/6/5
f 384/6/5 380/6/5 383/6/5
f 385/3/5 382/3/5 381/3/5
f 386/6/5 383/6/5 382/6/5
f 386/3/5 382/3/5 385/3/5
f 387/3/5 384/3/5 383/3/5
f 387/6/5 383/6/5 386/6/5
f 388/3/5 384/3/5 387/3/5
f 389/6/5 386/6/5 385/6/5
f 389/6/5 387/6/5 386/6/5
f 389/6/5 388/6/5 387/6/5
f 390/6/5 388/6/5 389/6/5
f 395/7/5 392/7/5 391/7/5
f 396/7/5 392/7/5 395/7/5
f 397/7/5 394/7/5 393/7/5
f 398/7/5 394/7/5 397/7/5
f 403/1/5 400/1/5 399/1/5
f 404/1/5 400/1/5 403/1/5
f 405/1/5 402/1/5 401/1/5
f 406/1/5 402/1/5 405/1/5
f 407/1/5 405/1/5 404/1/5
f 408/1/5 405/1/5 407/1/5
f 409/5/6 410/5/6 411/5/6
f 411/5/6 410/5/6 412/5/6
f 409/5/6 411/5/6 413/5/6
f 412/5/6 410/5/6 414/5/6
f 409/5/6 413/5/6 415/5/6
f 413/5/6 414/5/6 415/5/6
f 414/5/6 410/5/6 416/5/6
f 415/5/6 414/5/6 416/5/6
f 417/5/6 418/5/6 419/5/6
f 419/5/6 418/5/6 420/5/6
f 417/5/6 419/5/6 421/5/6
f 420/5/6 418/5/6 422/5/6
f 417/5/6 421/5/6 423/5/6
f 421/5/6 422/5/6 423/5/6
f 422/5/6 418/5/6 424/5/6
f 423/5/6 422/5/6 424/5/6
f 425/6/6 426/6/6 429/6/6
f 427/6/6 428/6/6 430/6/6
f 425/6/6 429/6/6 431/6/6
f 429/6/6 430/6/6 431/6/6
f 430/6/6 428/6/6 432/6/6
f 431/6/6 430/6/6 432/6/6
f 433/2/6 434/2/6 435/2/6
f 435/2/6 434/2/6 436/2/6
f 437/3/6 438/3/6 441/3/6
f 441/3/6 438/3/6 442/3/6
f 439/3/6 440/3/6 443/3/6
f 443/3/6 440/3/6 444/3/6
f 445/1/6 446/1/6 449/1/6
f 449/1/6 446/1/6 450/1/6
f 447/1/6 448/1/6 451/1/6
f 451/1/6 448/1/6 452/1/6
f 453/3/6 454/3/6 457/3/6
f 455/3/6 456/3/6 457/3/6
f 454/3/6 455/3/6 457/3/6
f 457/3/6 456/3/6 458/3/6
f 458/3/6 456/3/6 459/3/6
f 459/3/6 456/3/6 460/3/6
f 458/3/6 459/3/6 462/3/6
f 462/3/6 459/3/6 463/3/6
f 461/3/6 462/3/6 465/3/6
f 463/3/6 464/3/6 465/3/6
f 462/3/6 463/3/6 465/3/6
f 465/3/6 464/3/6 466/3/6
f 466/3/6 464/3/6 467/3/6
f 467/3/6 464/3/6 468/3/6
f 465/1/6 466/1/6 469/1/6
f 469/1/6 466/1/6 470/1/6
f 467/1/6 468/1/6 471/1/6
f 471/1/6 468/1/6 472/1/6
f 473/4/6 474/4/6 476/4/6
f 476/4/6 474/4/6 477/4/6
f 475/5/6 476/5/6 479/5/6
f 479/5/6 476/5/6 480/5/6
f 477/5/6 478/5/6 481/5/6
f 481/5/6 478/5/6 482/5/6
f 483/7/6 484/7/6 489/7/6
f 484/7/6 485/7/6 489/7/6
f 485/6/6 486/6/6 490/6/6
f 489/7/6 485/7/6 490/7/6
f 486/7/6 487/7/6 491/7/6
f 490/6/6 486/6/6 491/6/6
f 487/7/6 488/7/6 491/7/6
f 491/7/6 488/7/6 492/7/6
f 493/1/6 494/1/6 496/1/6
f 496/1/6 494/1/6 497/1/6
f 495/1/6 496/1/6 499/1/6
f 497/1/6 498/1/6 499/1/6
f 496/1/6 497/1/6 499/1/6
f 499/1/6 498/1/6 500/1/6
f 500/1/6 498/1/6 501/1/6
f 501/1/6 498/1/6 502/1/6
f 500/1/6 501/1/6 503/1/6
f 503/1/6 501/1/6 504/1/6
f 505/5/6 506/5/6 508/5/6
f 508/5/6 506/5/6 509/5/6
f 507/4/6 508/4/6 511/4/6
f 509/4/6 510/4/6 511/4/6
f 508/4/6 509/4/6 511/4/6
f 511/4/6 510/4/6 512/4/6
