# MagicaVoxel @ Ephtracy

# group
o 

# material
mtllib Car2.mtl
usemtl palette

# normals
vn -1 0 0
vn 1 0 0
vn 0 0 1
vn 0 0 -1
vn 0 -1 0
vn 0 1 0

# texcoords
vt 0.0449219 0.5
vt 0.0566406 0.5
vt 0.0605469 0.5
vt 0.388672 0.5
vt 0.689453 0.5
vt 0.748047 0.5
vt 0.966797 0.5
vt 0.986328 0.5
vt 0.990234 0.5
vt 0.994141 0.5

# verts
v -0.3 0 0.6
v -0.3 0 0.5
v -0.3 0 0.4
v -0.3 0 -0.3
v -0.3 0 -0.4
v -0.3 0 -0.5
v -0.3 0.1 0.6
v -0.3 0.1 0.5
v -0.3 0.1 0.4
v -0.3 0.1 -0.3
v -0.3 0.1 -0.4
v -0.3 0.1 -0.5
v -0.3 0.2 0.7
v -0.3 0.2 0.6
v -0.3 0.2 0.5
v -0.3 0.2 0.4
v -0.3 0.2 -0.3
v -0.3 0.2 -0.4
v -0.3 0.2 -0.5
v -0.3 0.2 -0.6
v -0.3 0.3 0.7
v -0.3 0.3 0.6
v -0.3 0.3 -0.5
v -0.3 0.3 -0.6
v -0.3 0.4 0.7
v -0.3 0.4 0.5
v -0.3 0.4 0.4
v -0.3 0.4 0.3
v -0.3 0.4 0.2
v -0.3 0.4 0.1
v -0.3 0.4 0
v -0.3 0.4 -0.1
v -0.3 0.4 -0.2
v -0.3 0.4 -0.4
v -0.3 0.4 -0.6
v -0.3 0.5 0.5
v -0.3 0.5 0.4
v -0.3 0.5 0.3
v -0.3 0.5 0.2
v -0.3 0.5 0.1
v -0.3 0.5 0
v -0.3 0.5 -0.1
v -0.3 0.5 -0.2
v -0.3 0.5 -0.3
v -0.3 0.5 -0.4
v -0.3 0.6 0.4
v -0.3 0.6 0.3
v -0.3 0.6 0.1
v -0.3 0.6 0
v -0.3 0.6 -0.1
v -0.3 0.6 -0.3
v -0.3 0.6 -0.4
v -0.3 0.7 0.5
v -0.3 0.7 -0.4
v -0.2 0.1 0.4
v -0.2 0.1 -0.3
v -0.2 0.2 0.4
v -0.2 0.2 -0.3
v -0.2 0.7 0.4
v -0.2 0.7 0.3
v -0.2 0.7 -0.2
v -0.2 0.7 -0.3
v -0.2 0.8 0.3
v -0.2 0.8 -0.2
v -0.2 0.9 0.4
v -0.2 0.9 -0.3
v 0.1 0.7 0.4
v 0.1 0.7 0.3
v 0.1 0.7 -0.2
v 0.1 0.7 -0.3
v 0.1 0.8 0.4
v 0.1 0.8 0.3
v 0.1 0.8 0.2
v 0.1 0.8 0.1
v 0.1 0.8 0
v 0.1 0.8 -0.1
v 0.1 0.8 -0.2
v 0.1 0.8 -0.3
v 0.1 0.9 0.3
v 0.1 0.9 0.2
v 0.1 0.9 0.1
v 0.1 0.9 0
v 0.1 0.9 -0.1
v 0.1 0.9 -0.2
v 0.2 0 0.6
v 0.2 0 0.5
v 0.2 0 0.4
v 0.2 0 -0.3
v 0.2 0 -0.4
v 0.2 0 -0.5
v 0.2 0.1 0.6
v 0.2 0.1 0.5
v 0.2 0.1 0.4
v 0.2 0.1 -0.3
v 0.2 0.1 -0.4
v 0.2 0.1 -0.5
v -0.2 0 0.6
v -0.2 0 0.5
v -0.2 0 0.4
v -0.2 0 -0.3
v -0.2 0 -0.4
v -0.2 0 -0.5
v -0.2 0.1 0.6
v -0.2 0.1 0.5
v -0.2 0.1 0.4
v -0.2 0.1 -0.3
v -0.2 0.1 -0.4
v -0.2 0.1 -0.5
v -0.1 0.7 0.4
v -0.1 0.7 0.3
v -0.1 0.7 -0.2
v -0.1 0.7 -0.3
v -0.1 0.8 0.4
v -0.1 0.8 0.3
v -0.1 0.8 0.2
v -0.1 0.8 0.1
v -0.1 0.8 0
v -0.1 0.8 -0.1
v -0.1 0.8 -0.2
v -0.1 0.8 -0.3
v -0.1 0.9 0.3
v -0.1 0.9 0.2
v -0.1 0.9 0.1
v -0.1 0.9 0
v -0.1 0.9 -0.1
v -0.1 0.9 -0.2
v 0.2 0.1 0.4
v 0.2 0.1 -0.3
v 0.2 0.2 0.4
v 0.2 0.2 -0.3
v 0.2 0.7 0.4
v 0.2 0.7 0.3
v 0.2 0.7 -0.2
v 0.2 0.7 -0.3
v 0.2 0.8 0.3
v 0.2 0.8 -0.2
v 0.2 0.9 0.4
v 0.2 0.9 -0.3
v 0.3 0 0.6
v 0.3 0 0.5
v 0.3 0 0.4
v 0.3 0 -0.3
v 0.3 0 -0.4
v 0.3 0 -0.5
v 0.3 0.1 0.6
v 0.3 0.1 0.5
v 0.3 0.1 0.4
v 0.3 0.1 -0.3
v 0.3 0.1 -0.4
v 0.3 0.1 -0.5
v 0.3 0.2 0.7
v 0.3 0.2 0.6
v 0.3 0.2 0.5
v 0.3 0.2 0.4
v 0.3 0.2 -0.3
v 0.3 0.2 -0.4
v 0.3 0.2 -0.5
v 0.3 0.2 -0.6
v 0.3 0.3 0.7
v 0.3 0.3 0.6
v 0.3 0.3 -0.5
v 0.3 0.3 -0.6
v 0.3 0.4 0.7
v 0.3 0.4 0.5
v 0.3 0.4 0.4
v 0.3 0.4 0.3
v 0.3 0.4 0.2
v 0.3 0.4 0.1
v 0.3 0.4 0
v 0.3 0.4 -0.1
v 0.3 0.4 -0.2
v 0.3 0.4 -0.4
v 0.3 0.4 -0.6
v 0.3 0.5 0.5
v 0.3 0.5 0.4
v 0.3 0.5 0.3
v 0.3 0.5 0.2
v 0.3 0.5 0.1
v 0.3 0.5 0
v 0.3 0.5 -0.1
v 0.3 0.5 -0.2
v 0.3 0.5 -0.3
v 0.3 0.6 0.4
v 0.3 0.6 0.2
v 0.3 0.6 0.1
v 0.3 0.6 0
v 0.3 0.6 -0.2
v 0.3 0.6 -0.3
v 0.3 0.6 -0.4
v 0.3 0.7 0.5
v 0.3 0.7 -0.4
v -0.3 0.2 0.7
v -0.3 0.3 0.7
v -0.3 0.4 0.7
v 0.3 0.2 0.7
v 0.3 0.3 0.7
v 0.3 0.4 0.7
v -0.3 0 0.6
v -0.3 0.1 0.6
v -0.3 0.2 0.6
v -0.2 0 0.6
v -0.2 0.1 0.6
v -0.2 0.2 0.6
v 0.2 0 0.6
v 0.2 0.1 0.6
v 0.2 0.2 0.6
v 0.3 0 0.6
v 0.3 0.1 0.6
v 0.3 0.2 0.6
v -0.3 0.4 0.5
v -0.3 0.5 0.5
v -0.3 0.7 0.5
v -0.2 0.4 0.5
v -0.2 0.5 0.5
v -0.2 0.6 0.5
v -0.1 0.4 0.5
v -0.1 0.5 0.5
v 2.98023e-08 0.4 0.5
v 2.98023e-08 0.5 0.5
v 2.98023e-08 0.6 0.5
v 0.1 0.5 0.5
v 0.1 0.6 0.5
v 0.2 0.4 0.5
v 0.2 0.5 0.5
v 0.2 0.6 0.5
v 0.3 0.4 0.5
v 0.3 0.5 0.5
v 0.3 0.7 0.5
v -0.2 0.7 0.4
v -0.2 0.9 0.4
v -0.1 0.7 0.4
v -0.1 0.8 0.4
v 0.1 0.7 0.4
v 0.1 0.8 0.4
v 0.2 0.7 0.4
v 0.2 0.9 0.4
v -0.1 0.8 0.2
v -0.1 0.9 0.2
v 0.1 0.8 0.2
v 0.1 0.9 0.2
v -0.1 0.8 0
v -0.1 0.9 0
v 0.1 0.8 0
v 0.1 0.9 0
v -0.2 0.7 -0.2
v -0.2 0.8 -0.2
v -0.1 0.7 -0.2
v -0.1 0.8 -0.2
v -0.1 0.9 -0.2
v 0.1 0.7 -0.2
v 0.1 0.8 -0.2
v 0.1 0.9 -0.2
v 0.2 0.7 -0.2
v 0.2 0.8 -0.2
v -0.3 0 -0.3
v -0.3 0.1 -0.3
v -0.3 0.2 -0.3
v -0.2 0 -0.3
v -0.2 0.1 -0.3
v -0.2 0.2 -0.3
v 0.2 0 -0.3
v 0.2 0.1 -0.3
v 0.2 0.2 -0.3
v 0.3 0 -0.3
v 0.3 0.1 -0.3
v 0.3 0.2 -0.3
v -0.3 0 0.4
v -0.3 0.1 0.4
v -0.3 0.2 0.4
v -0.2 0 0.4
v -0.2 0.1 0.4
v -0.2 0.2 0.4
v 0.2 0 0.4
v 0.2 0.1 0.4
v 0.2 0.2 0.4
v 0.3 0 0.4
v 0.3 0.1 0.4
v 0.3 0.2 0.4
v -0.2 0.7 0.3
v -0.2 0.8 0.3
v -0.1 0.7 0.3
v -0.1 0.8 0.3
v -0.1 0.9 0.3
v 0.1 0.7 0.3
v 0.1 0.8 0.3
v 0.1 0.9 0.3
v 0.2 0.7 0.3
v 0.2 0.8 0.3
v -0.1 0.8 0.1
v -0.1 0.9 0.1
v 0.1 0.8 0.1
v 0.1 0.9 0.1
v -0.1 0.8 -0.1
v -0.1 0.9 -0.1
v 0.1 0.8 -0.1
v 0.1 0.9 -0.1
v -0.2 0.7 -0.3
v -0.2 0.9 -0.3
v -0.1 0.7 -0.3
v -0.1 0.8 -0.3
v 0.1 0.7 -0.3
v 0.1 0.8 -0.3
v 0.2 0.7 -0.3
v 0.2 0.9 -0.3
v -0.3 0.4 -0.4
v -0.3 0.5 -0.4
v -0.3 0.6 -0.4
v -0.3 0.7 -0.4
v -0.2 0.4 -0.4
v -0.2 0.5 -0.4
v -0.2 0.6 -0.4
v -0.1 0.4 -0.4
v -0.1 0.5 -0.4
v 2.98023e-08 0.5 -0.4
v 2.98023e-08 0.6 -0.4
v 0.1 0.4 -0.4
v 0.1 0.5 -0.4
v 0.1 0.6 -0.4
v 0.2 0.4 -0.4
v 0.2 0.5 -0.4
v 0.3 0.4 -0.4
v 0.3 0.6 -0.4
v 0.3 0.7 -0.4
v -0.3 0 -0.5
v -0.3 0.1 -0.5
v -0.3 0.2 -0.5
v -0.2 0 -0.5
v -0.2 0.1 -0.5
v -0.2 0.2 -0.5
v 0.2 0 -0.5
v 0.2 0.1 -0.5
v 0.2 0.2 -0.5
v 0.3 0 -0.5
v 0.3 0.1 -0.5
v 0.3 0.2 -0.5
v -0.3 0.2 -0.6
v -0.3 0.3 -0.6
v -0.3 0.4 -0.6
v -0.2 0.3 -0.6
v -0.2 0.4 -0.6
v -0.1 0.3 -0.6
v -0.1 0.4 -0.6
v 0.1 0.3 -0.6
v 0.1 0.4 -0.6
v 0.2 0.3 -0.6
v 0.2 0.4 -0.6
v 0.3 0.2 -0.6
v 0.3 0.3 -0.6
v 0.3 0.4 -0.6
v -0.3 0 0.6
v -0.2 0 0.6
v 0.2 0 0.6
v 0.3 0 0.6
v -0.3 0 0.5
v -0.2 0 0.5
v 0.2 0 0.5
v 0.3 0 0.5
v -0.3 0 0.4
v -0.2 0 0.4
v 0.2 0 0.4
v 0.3 0 0.4
v -0.3 0 -0.3
v -0.2 0 -0.3
v 0.2 0 -0.3
v 0.3 0 -0.3
v -0.3 0 -0.4
v -0.2 0 -0.4
v 0.2 0 -0.4
v 0.3 0 -0.4
v -0.3 0 -0.5
v -0.2 0 -0.5
v 0.2 0 -0.5
v 0.3 0 -0.5
v -0.2 0.1 0.6
v 0.2 0.1 0.6
v -0.2 0.1 0.5
v 0.2 0.1 0.5
v -0.2 0.1 0.4
v 0.2 0.1 0.4
v -0.2 0.1 -0.3
v 0.2 0.1 -0.3
v -0.2 0.1 -0.4
v 0.2 0.1 -0.4
v -0.2 0.1 -0.5
v 0.2 0.1 -0.5
v -0.3 0.2 0.7
v 0.3 0.2 0.7
v -0.3 0.2 0.6
v -0.2 0.2 0.6
v 0.2 0.2 0.6
v 0.3 0.2 0.6
v -0.3 0.2 0.4
v -0.2 0.2 0.4
v 0.2 0.2 0.4
v 0.3 0.2 0.4
v -0.3 0.2 -0.3
v -0.2 0.2 -0.3
v 0.2 0.2 -0.3
v 0.3 0.2 -0.3
v -0.3 0.2 -0.5
v -0.2 0.2 -0.5
v 0.2 0.2 -0.5
v 0.3 0.2 -0.5
v -0.3 0.2 -0.6
v 0.3 0.2 -0.6
v -0.1 0.8 0.4
v 0.1 0.8 0.4
v -0.2 0.8 0.3
v -0.1 0.8 0.3
v 0.1 0.8 0.3
v 0.2 0.8 0.3
v -0.1 0.8 0.2
v 0.1 0.8 0.2
v -0.1 0.8 0.1
v 0.1 0.8 0.1
v -0.1 0.8 0
v 0.1 0.8 0
v -0.1 0.8 -0.1
v 0.1 0.8 -0.1
v -0.2 0.8 -0.2
v -0.1 0.8 -0.2
v 0.1 0.8 -0.2
v 0.2 0.8 -0.2
v -0.1 0.8 -0.3
v 0.1 0.8 -0.3
v -0.3 0.4 0.7
v 0.3 0.4 0.7
v -0.3 0.4 0.5
v -0.2 0.4 0.5
v -0.1 0.4 0.5
v 2.98023e-08 0.4 0.5
v 0.2 0.4 0.5
v 0.3 0.4 0.5
v -0.3 0.4 -0.4
v -0.2 0.4 -0.4
v -0.1 0.4 -0.4
v 0.1 0.4 -0.4
v 0.2 0.4 -0.4
v 0.3 0.4 -0.4
v -0.2 0.4 -0.5
v -0.1 0.4 -0.5
v 0.1 0.4 -0.5
v 0.2 0.4 -0.5
v -0.3 0.4 -0.6
v -0.2 0.4 -0.6
v -0.1 0.4 -0.6
v 0.1 0.4 -0.6
v 0.2 0.4 -0.6
v 0.3 0.4 -0.6
v -0.3 0.7 0.5
v 0.3 0.7 0.5
v -0.2 0.7 0.4
v -0.1 0.7 0.4
v 0.1 0.7 0.4
v 0.2 0.7 0.4
v -0.2 0.7 0.3
v -0.1 0.7 0.3
v 0.1 0.7 0.3
v 0.2 0.7 0.3
v -0.2 0.7 -0.2
v -0.1 0.7 -0.2
v 0.1 0.7 -0.2
v 0.2 0.7 -0.2
v -0.2 0.7 -0.3
v -0.1 0.7 -0.3
v 0.1 0.7 -0.3
v 0.2 0.7 -0.3
v -0.3 0.7 -0.4
v 0.3 0.7 -0.4
v -0.2 0.9 0.4
v 0.2 0.9 0.4
v -0.1 0.9 0.3
v 0.1 0.9 0.3
v -0.1 0.9 0.2
v 0.1 0.9 0.2
v -0.1 0.9 0.1
v 0.1 0.9 0.1
v -0.1 0.9 0
v 0.1 0.9 0
v -0.1 0.9 -0.1
v 0.1 0.9 -0.1
v -0.1 0.9 -0.2
v 0.1 0.9 -0.2
v -0.2 0.9 -0.3
v 0.2 0.9 -0.3

# faces
f 7/9/1 2/9/1 1/9/1
f 8/10/1 3/10/1 2/10/1
f 8/9/1 2/9/1 7/9/1
f 9/10/1 3/10/1 8/10/1
f 10/9/1 5/9/1 4/9/1
f 11/10/1 6/10/1 5/10/1
f 11/9/1 5/9/1 10/9/1
f 12/10/1 6/10/1 11/10/1
f 14/10/1 8/10/1 7/10/1
f 15/9/1 9/9/1 8/9/1
f 15/10/1 8/10/1 14/10/1
f 16/9/1 9/9/1 15/9/1
f 17/10/1 11/10/1 10/10/1
f 18/9/1 12/9/1 11/9/1
f 18/10/1 11/10/1 17/10/1
f 19/9/1 12/9/1 18/9/1
f 21/7/1 14/7/1 13/7/1
f 22/3/1 19/3/1 18/3/1
f 22/7/1 14/7/1 21/7/1
f 22/3/1 16/3/1 15/3/1
f 22/3/1 18/3/1 17/3/1
f 22/3/1 17/3/1 16/3/1
f 22/3/1 15/3/1 14/3/1
f 23/7/1 20/7/1 19/7/1
f 23/3/1 19/3/1 22/3/1
f 24/7/1 20/7/1 23/7/1
f 25/2/1 22/2/1 21/2/1
f 25/2/1 23/2/1 22/2/1
f 25/2/1 24/2/1 23/2/1
f 26/2/1 24/2/1 25/2/1
f 27/2/1 24/2/1 26/2/1
f 28/2/1 24/2/1 27/2/1
f 29/2/1 24/2/1 28/2/1
f 30/2/1 24/2/1 29/2/1
f 31/2/1 24/2/1 30/2/1
f 32/2/1 24/2/1 31/2/1
f 33/2/1 24/2/1 32/2/1
f 34/2/1 24/2/1 33/2/1
f 35/2/1 24/2/1 34/2/1
f 36/2/1 27/2/1 26/2/1
f 37/6/1 28/6/1 27/6/1
f 37/2/1 27/2/1 36/2/1
f 38/5/1 29/5/1 28/5/1
f 38/6/1 28/6/1 37/6/1
f 39/6/1 30/6/1 29/6/1
f 39/5/1 29/5/1 38/5/1
f 40/2/1 31/2/1 30/2/1
f 40/6/1 30/6/1 39/6/1
f 41/6/1 32/6/1 31/6/1
f 41/2/1 31/2/1 40/2/1
f 42/5/1 33/5/1 32/5/1
f 42/6/1 32/6/1 41/6/1
f 43/6/1 34/6/1 33/6/1
f 43/5/1 33/5/1 42/5/1
f 44/6/1 34/6/1 43/6/1
f 45/6/1 34/6/1 44/6/1
f 46/1/1 37/1/1 36/1/1
f 46/5/1 38/5/1 37/5/1
f 47/6/1 39/6/1 38/6/1
f 47/5/1 38/5/1 46/5/1
f 47/6/1 40/6/1 39/6/1
f 48/1/1 41/1/1 40/1/1
f 48/6/1 40/6/1 47/6/1
f 49/5/1 42/5/1 41/5/1
f 49/1/1 41/1/1 48/1/1
f 50/6/1 44/6/1 43/6/1
f 50/5/1 42/5/1 49/5/1
f 50/6/1 43/6/1 42/6/1
f 51/5/1 45/5/1 44/5/1
f 51/6/1 44/6/1 50/6/1
f 52/5/1 45/5/1 51/5/1
f 53/1/1 48/1/1 47/1/1
f 53/1/1 50/1/1 49/1/1
f 53/1/1 52/1/1 51/1/1
f 53/1/1 51/1/1 50/1/1
f 53/1/1 47/1/1 46/1/1
f 53/1/1 49/1/1 48/1/1
f 53/1/1 46/1/1 36/1/1
f 54/1/1 52/1/1 53/1/1
f 57/8/1 56/8/1 55/8/1
f 58/8/1 56/8/1 57/8/1
f 63/7/1 60/7/1 59/7/1
f 64/7/1 62/7/1 61/7/1
f 65/7/1 63/7/1 59/7/1
f 65/7/1 64/7/1 63/7/1
f 66/7/1 62/7/1 64/7/1
f 66/7/1 64/7/1 65/7/1
f 71/7/1 68/7/1 67/7/1
f 72/7/1 68/7/1 71/7/1
f 77/7/1 70/7/1 69/7/1
f 78/7/1 70/7/1 77/7/1
f 79/7/1 73/7/1 72/7/1
f 80/7/1 73/7/1 79/7/1
f 81/7/1 75/7/1 74/7/1
f 82/7/1 75/7/1 81/7/1
f 83/7/1 77/7/1 76/7/1
f 84/7/1 77/7/1 83/7/1
f 91/10/1 86/10/1 85/10/1
f 92/9/1 87/9/1 86/9/1
f 92/10/1 86/10/1 91/10/1
f 93/9/1 87/9/1 92/9/1
f 94/10/1 89/10/1 88/10/1
f 95/9/1 90/9/1 89/9/1
f 95/10/1 89/10/1 94/10/1
f 96/9/1 90/9/1 95/9/1
f 97/9/2 98/9/2 103/9/2
f 98/10/2 99/10/2 104/10/2
f 103/9/2 98/9/2 104/9/2
f 104/10/2 99/10/2 105/10/2
f 100/9/2 101/9/2 106/9/2
f 101/10/2 102/10/2 107/10/2
f 106/9/2 101/9/2 107/9/2
f 107/10/2 102/10/2 108/10/2
f 109/7/2 110/7/2 113/7/2
f 113/7/2 110/7/2 114/7/2
f 111/7/2 112/7/2 119/7/2
f 119/7/2 112/7/2 120/7/2
f 114/7/2 115/7/2 121/7/2
f 121/7/2 115/7/2 122/7/2
f 116/7/2 117/7/2 123/7/2
f 123/7/2 117/7/2 124/7/2
f 118/7/2 119/7/2 125/7/2
f 125/7/2 119/7/2 126/7/2
f 127/8/2 128/8/2 129/8/2
f 129/8/2 128/8/2 130/8/2
f 131/7/2 132/7/2 135/7/2
f 133/7/2 134/7/2 136/7/2
f 131/7/2 135/7/2 137/7/2
f 135/7/2 136/7/2 137/7/2
f 136/7/2 134/7/2 138/7/2
f 137/7/2 136/7/2 138/7/2
f 139/10/2 140/10/2 145/10/2
f 140/9/2 141/9/2 146/9/2
f 145/10/2 140/10/2 146/10/2
f 146/9/2 141/9/2 147/9/2
f 142/10/2 143/10/2 148/10/2
f 143/9/2 144/9/2 149/9/2
f 148/10/2 143/10/2 149/10/2
f 149/9/2 144/9/2 150/9/2
f 145/9/2 146/9/2 152/9/2
f 146/10/2 147/10/2 153/10/2
f 152/9/2 146/9/2 153/9/2
f 153/10/2 147/10/2 154/10/2
f 148/9/2 149/9/2 155/9/2
f 149/10/2 150/10/2 156/10/2
f 155/9/2 149/9/2 156/9/2
f 156/10/2 150/10/2 157/10/2
f 151/7/2 152/7/2 159/7/2
f 156/3/2 157/3/2 160/3/2
f 159/7/2 152/7/2 160/7/2
f 153/3/2 154/3/2 160/3/2
f 155/3/2 156/3/2 160/3/2
f 154/3/2 155/3/2 160/3/2
f 152/3/2 153/3/2 160/3/2
f 157/7/2 158/7/2 161/7/2
f 160/3/2 157/3/2 161/3/2
f 161/7/2 158/7/2 162/7/2
f 159/2/2 160/2/2 163/2/2
f 160/2/2 161/2/2 163/2/2
f 161/2/2 162/2/2 163/2/2
f 163/2/2 162/2/2 164/2/2
f 164/2/2 162/2/2 165/2/2
f 165/2/2 162/2/2 166/2/2
f 166/2/2 162/2/2 167/2/2
f 167/2/2 162/2/2 168/2/2
f 168/2/2 162/2/2 169/2/2
f 169/2/2 162/2/2 170/2/2
f 170/2/2 162/2/2 171/2/2
f 171/2/2 162/2/2 172/2/2
f 172/2/2 162/2/2 173/2/2
f 164/2/2 165/2/2 174/2/2
f 165/6/2 166/6/2 175/6/2
f 174/2/2 165/2/2 175/2/2
f 166/5/2 167/5/2 176/5/2
f 175/6/2 166/6/2 176/6/2
f 167/6/2 168/6/2 177/6/2
f 176/5/2 167/5/2 177/5/2
f 168/2/2 169/2/2 178/2/2
f 177/6/2 168/6/2 178/6/2
f 169/6/2 170/6/2 179/6/2
f 178/2/2 169/2/2 179/2/2
f 170/5/2 171/5/2 180/5/2
f 179/6/2 170/6/2 180/6/2
f 171/6/2 172/6/2 181/6/2
f 180/5/2 171/5/2 181/5/2
f 181/6/2 172/6/2 182/6/2
f 174/1/2 175/1/2 183/1/2
f 175/6/2 176/6/2 183/6/2
f 176/6/2 177/6/2 183/6/2
f 177/5/2 178/5/2 184/5/2
f 183/6/2 177/6/2 184/6/2
f 178/1/2 179/1/2 185/1/2
f 184/5/2 178/5/2 185/5/2
f 179/6/2 180/6/2 186/6/2
f 185/1/2 179/1/2 186/1/2
f 180/6/2 181/6/2 186/6/2
f 181/5/2 182/5/2 187/5/2
f 186/6/2 181/6/2 187/6/2
f 182/6/2 172/6/2 188/6/2
f 187/5/2 182/5/2 188/5/2
f 188/6/2 172/6/2 189/6/2
f 184/1/2 185/1/2 190/1/2
f 186/1/2 187/1/2 190/1/2
f 188/1/2 189/1/2 190/1/2
f 187/1/2 188/1/2 190/1/2
f 174/1/2 183/1/2 190/1/2
f 183/1/2 184/1/2 190/1/2
f 185/1/2 186/1/2 190/1/2
f 190/1/2 189/1/2 191/1/2
f 195/7/3 193/7/3 192/7/3
f 196/2/3 194/2/3 193/2/3
f 196/7/3 193/7/3 195/7/3
f 197/2/3 194/2/3 196/2/3
f 201/9/3 199/9/3 198/9/3
f 202/10/3 200/10/3 199/10/3
f 202/9/3 199/9/3 201/9/3
f 203/10/3 200/10/3 202/10/3
f 205/8/3 203/8/3 202/8/3
f 206/8/3 203/8/3 205/8/3
f 207/10/3 205/10/3 204/10/3
f 208/9/3 206/9/3 205/9/3
f 208/10/3 205/10/3 207/10/3
f 209/9/3 206/9/3 208/9/3
f 213/2/3 211/2/3 210/2/3
f 214/1/3 212/1/3 211/1/3
f 214/2/3 211/2/3 213/2/3
f 215/1/3 212/1/3 214/1/3
f 216/6/3 214/6/3 213/6/3
f 216/6/3 215/6/3 214/6/3
f 217/6/3 215/6/3 216/6/3
f 218/5/3 217/5/3 216/5/3
f 219/6/3 215/6/3 217/6/3
f 219/5/3 217/5/3 218/5/3
f 220/1/3 212/1/3 215/1/3
f 220/6/3 215/6/3 219/6/3
f 221/6/3 219/6/3 218/6/3
f 221/5/3 220/5/3 219/5/3
f 222/1/3 212/1/3 220/1/3
f 222/5/3 220/5/3 221/5/3
f 223/6/3 221/6/3 218/6/3
f 223/6/3 222/6/3 221/6/3
f 224/6/3 222/6/3 223/6/3
f 225/1/3 212/1/3 222/1/3
f 225/6/3 222/6/3 224/6/3
f 226/2/3 224/2/3 223/2/3
f 227/1/3 225/1/3 224/1/3
f 227/2/3 224/2/3 226/2/3
f 228/1/3 212/1/3 225/1/3
f 228/1/3 225/1/3 227/1/3
f 231/7/3 230/7/3 229/7/3
f 232/7/3 230/7/3 231/7/3
f 234/7/3 230/7/3 232/7/3
f 235/7/3 234/7/3 233/7/3
f 236/7/3 230/7/3 234/7/3
f 236/7/3 234/7/3 235/7/3
f 239/7/3 238/7/3 237/7/3
f 240/7/3 238/7/3 239/7/3
f 243/7/3 242/7/3 241/7/3
f 244/7/3 242/7/3 243/7/3
f 247/7/3 246/7/3 245/7/3
f 248/7/3 246/7/3 247/7/3
f 251/7/3 249/7/3 248/7/3
f 252/7/3 249/7/3 251/7/3
f 253/7/3 251/7/3 250/7/3
f 254/7/3 251/7/3 253/7/3
f 258/9/3 256/9/3 255/9/3
f 259/10/3 257/10/3 256/10/3
f 259/9/3 256/9/3 258/9/3
f 260/10/3 257/10/3 259/10/3
f 264/10/3 262/10/3 261/10/3
f 265/9/3 263/9/3 262/9/3
f 265/10/3 262/10/3 264/10/3
f 266/9/3 263/9/3 265/9/3
f 267/10/4 268/10/4 270/10/4
f 268/9/4 269/9/4 271/9/4
f 270/10/4 268/10/4 271/10/4
f 271/9/4 269/9/4 272/9/4
f 273/9/4 274/9/4 276/9/4
f 274/10/4 275/10/4 277/10/4
f 276/9/4 274/9/4 277/9/4
f 277/10/4 275/10/4 278/10/4
f 279/7/4 280/7/4 281/7/4
f 281/7/4 280/7/4 282/7/4
f 282/7/4 283/7/4 285/7/4
f 285/7/4 283/7/4 286/7/4
f 284/7/4 285/7/4 287/7/4
f 287/7/4 285/7/4 288/7/4
f 289/7/4 290/7/4 291/7/4
f 291/7/4 290/7/4 292/7/4
f 293/7/4 294/7/4 295/7/4
f 295/7/4 294/7/4 296/7/4
f 297/7/4 298/7/4 299/7/4
f 299/7/4 298/7/4 300/7/4
f 300/7/4 298/7/4 302/7/4
f 301/7/4 302/7/4 303/7/4
f 302/7/4 298/7/4 304/7/4
f 303/7/4 302/7/4 304/7/4
f 305/6/4 306/6/4 309/6/4
f 306/5/4 307/5/4 310/5/4
f 309/6/4 306/6/4 310/6/4
f 307/1/4 308/1/4 311/1/4
f 310/5/4 307/5/4 311/5/4
f 309/5/4 310/5/4 312/5/4
f 310/6/4 311/6/4 313/6/4
f 312/5/4 310/5/4 313/5/4
f 312/6/4 313/6/4 314/6/4
f 313/6/4 311/6/4 314/6/4
f 311/1/4 308/1/4 315/1/4
f 314/6/4 311/6/4 315/6/4
f 312/6/4 314/6/4 316/6/4
f 314/5/4 315/5/4 317/5/4
f 316/6/4 314/6/4 317/6/4
f 315/1/4 308/1/4 318/1/4
f 317/5/4 315/5/4 318/5/4
f 316/5/4 317/5/4 319/5/4
f 317/6/4 318/6/4 320/6/4
f 319/5/4 317/5/4 320/5/4
f 319/6/4 320/6/4 321/6/4
f 318/1/4 308/1/4 322/1/4
f 321/6/4 320/6/4 322/6/4
f 320/6/4 318/6/4 322/6/4
f 322/1/4 308/1/4 323/1/4
f 324/10/4 325/10/4 327/10/4
f 325/9/4 326/9/4 328/9/4
f 327/10/4 325/10/4 328/10/4
f 328/9/4 326/9/4 329/9/4
f 328/8/4 329/8/4 331/8/4
f 331/8/4 329/8/4 332/8/4
f 330/9/4 331/9/4 333/9/4
f 331/10/4 332/10/4 334/10/4
f 333/9/4 331/9/4 334/9/4
f 334/10/4 332/10/4 335/10/4
f 336/7/4 337/7/4 339/7/4
f 337/2/4 338/2/4 339/2/4
f 339/2/4 338/2/4 340/2/4
f 336/7/4 339/7/4 341/7/4
f 339/4/4 340/4/4 341/4/4
f 341/4/4 340/4/4 342/4/4
f 336/7/4 341/7/4 343/7/4
f 341/2/4 342/2/4 343/2/4
f 343/2/4 342/2/4 344/2/4
f 336/7/4 343/7/4 345/7/4
f 343/4/4 344/4/4 345/4/4
f 345/4/4 344/4/4 346/4/4
f 336/7/4 345/7/4 347/7/4
f 345/2/4 346/2/4 348/2/4
f 347/7/4 345/7/4 348/7/4
f 348/2/4 346/2/4 349/2/4
f 354/9/5 351/9/5 350/9/5
f 355/9/5 351/9/5 354/9/5
f 356/10/5 353/10/5 352/10/5
f 357/10/5 353/10/5 356/10/5
f 358/10/5 355/10/5 354/10/5
f 359/10/5 355/10/5 358/10/5
f 360/9/5 357/9/5 356/9/5
f 361/9/5 357/9/5 360/9/5
f 366/9/5 363/9/5 362/9/5
f 367/9/5 363/9/5 366/9/5
f 368/10/5 365/10/5 364/10/5
f 369/10/5 365/10/5 368/10/5
f 370/10/5 367/10/5 366/10/5
f 371/10/5 367/10/5 370/10/5
f 372/9/5 369/9/5 368/9/5
f 373/9/5 369/9/5 372/9/5
f 376/8/5 375/8/5 374/8/5
f 377/8/5 375/8/5 376/8/5
f 378/8/5 377/8/5 376/8/5
f 379/8/5 377/8/5 378/8/5
f 380/8/5 379/8/5 378/8/5
f 381/8/5 379/8/5 380/8/5
f 382/8/5 381/8/5 380/8/5
f 383/8/5 381/8/5 382/8/5
f 384/8/5 383/8/5 382/8/5
f 385/8/5 383/8/5 384/8/5
f 388/7/5 387/7/5 386/7/5
f 389/7/5 387/7/5 388/7/5
f 390/7/5 387/7/5 389/7/5
f 391/7/5 387/7/5 390/7/5
f 396/3/5 393/3/5 392/3/5
f 397/3/5 393/3/5 396/3/5
f 398/3/5 395/3/5 394/3/5
f 399/3/5 395/3/5 398/3/5
f 404/7/5 401/7/5 400/7/5
f 404/7/5 403/7/5 402/7/5
f 404/7/5 402/7/5 401/7/5
f 405/7/5 403/7/5 404/7/5
f 409/7/5 407/7/5 406/7/5
f 410/7/5 407/7/5 409/7/5
f 412/7/5 409/7/5 408/7/5
f 413/7/5 411/7/5 410/7/5
f 414/7/5 412/7/5 408/7/5
f 414/7/5 413/7/5 412/7/5
f 415/7/5 411/7/5 413/7/5
f 415/7/5 413/7/5 414/7/5
f 416/7/5 414/7/5 408/7/5
f 417/7/5 411/7/5 415/7/5
f 418/7/5 416/7/5 408/7/5
f 418/7/5 417/7/5 416/7/5
f 419/7/5 411/7/5 417/7/5
f 419/7/5 417/7/5 418/7/5
f 420/7/5 418/7/5 408/7/5
f 421/7/5 418/7/5 420/7/5
f 422/7/5 411/7/5 419/7/5
f 423/7/5 411/7/5 422/7/5
f 424/7/5 422/7/5 421/7/5
f 425/7/5 422/7/5 424/7/5
f 426/2/6 427/2/6 428/2/6
f 428/2/6 427/2/6 429/2/6
f 429/2/6 427/2/6 430/2/6
f 430/2/6 427/2/6 431/2/6
f 431/2/6 427/2/6 432/2/6
f 432/2/6 427/2/6 433/2/6
f 434/2/6 435/2/6 440/2/6
f 438/2/6 439/2/6 440/2/6
f 437/2/6 438/2/6 440/2/6
f 436/2/6 437/2/6 440/2/6
f 435/2/6 436/2/6 440/2/6
f 440/2/6 439/2/6 441/2/6
f 441/2/6 439/2/6 442/2/6
f 442/2/6 439/2/6 443/2/6
f 434/2/6 440/2/6 444/2/6
f 440/4/6 441/4/6 445/4/6
f 444/2/6 440/2/6 445/2/6
f 441/2/6 442/2/6 446/2/6
f 445/4/6 441/4/6 446/4/6
f 442/4/6 443/4/6 447/4/6
f 446/2/6 442/2/6 447/2/6
f 443/2/6 439/2/6 448/2/6
f 447/4/6 443/4/6 448/4/6
f 448/2/6 439/2/6 449/2/6
f 450/1/6 451/1/6 452/1/6
f 452/1/6 451/1/6 453/1/6
f 453/1/6 451/1/6 454/1/6
f 454/1/6 451/1/6 455/1/6
f 450/1/6 452/1/6 456/1/6
f 453/1/6 454/1/6 457/1/6
f 457/1/6 454/1/6 458/1/6
f 455/1/6 451/1/6 459/1/6
f 457/1/6 458/1/6 460/1/6
f 458/1/6 459/1/6 460/1/6
f 450/1/6 456/1/6 460/1/6
f 456/1/6 457/1/6 460/1/6
f 460/1/6 459/1/6 461/1/6
f 461/1/6 459/1/6 462/1/6
f 459/1/6 451/1/6 463/1/6
f 462/1/6 459/1/6 463/1/6
f 450/1/6 460/1/6 464/1/6
f 461/1/6 462/1/6 465/1/6
f 465/1/6 462/1/6 466/1/6
f 463/1/6 451/1/6 467/1/6
f 450/1/6 464/1/6 468/1/6
f 466/1/6 467/1/6 468/1/6
f 465/1/6 466/1/6 468/1/6
f 464/1/6 465/1/6 468/1/6
f 467/1/6 451/1/6 469/1/6
f 468/1/6 467/1/6 469/1/6
f 470/7/6 471/7/6 472/7/6
f 472/7/6 471/7/6 473/7/6
f 470/7/6 472/7/6 474/7/6
f 473/7/6 471/7/6 475/7/6
f 470/7/6 474/7/6 476/7/6
f 474/7/6 475/7/6 476/7/6
f 475/7/6 471/7/6 477/7/6
f 476/7/6 475/7/6 477/7/6
f 470/7/6 476/7/6 478/7/6
f 477/7/6 471/7/6 479/7/6
f 470/7/6 478/7/6 480/7/6
f 478/7/6 479/7/6 480/7/6
f 479/7/6 471/7/6 481/7/6
f 480/7/6 479/7/6 481/7/6
f 470/7/6 480/7/6 482/7/6
f 481/7/6 471/7/6 483/7/6
f 470/7/6 482/7/6 484/7/6
f 482/7/6 483/7/6 484/7/6
f 483/7/6 471/7/6 485/7/6
f 484/7/6 483/7/6 485/7/6
